<svg width="55.000000" height="35.000000" viewBox="0 0 55 35" fill="none" xmlns="http://www.w3.org/2000/svg" xmlns:xlink="http://www.w3.org/1999/xlink">
	<desc>
			Created with Pixso.
	</desc>
	<defs/>
	<path id="Triangle" d="M36.65 29.48C35.34 31.65 32.2 31.65 30.9 29.48L12.78 -0.73L48.86 -0.73C51.46 -0.73 53.07 2.1 51.73 4.34L36.65 29.48Z" fill="#FFD723" fill-opacity="1.000000" fill-rule="evenodd"/>
	<path id="Triangle" d="M12.78 -0.73L48.86 -0.73C51.46 -0.73 53.07 2.1 51.73 4.34L36.65 29.48C35.34 31.65 32.2 31.65 30.9 29.48L12.78 -0.73Z" stroke="#979797" stroke-opacity="0" stroke-width="0.000000"/>
	<path id="Triangle Copy" d="M23.86 29.48L41.99 -0.73L5.91 -0.73C3.31 -0.73 1.7 2.1 3.04 4.34L18.12 29.48C19.42 31.65 22.56 31.65 23.86 29.48Z" fill="#FFFFFF" fill-opacity="1.000000" fill-rule="evenodd"/>
	<path id="Rectangle" d="M12.78 -0.73L41.99 -0.73L27.39 23.61L12.78 -0.73Z" fill="#F6F6F6" fill-opacity="1.000000" fill-rule="evenodd"/>
	<path id="Rectangle" d="M41.99 -0.73L27.39 23.61L12.78 -0.73L41.99 -0.73Z" stroke="#979797" stroke-opacity="0" stroke-width="0.000000"/>
</svg>
