<svg width="40.000000" height="40.000000" viewBox="0 0 40 40" fill="none" xmlns="http://www.w3.org/2000/svg" xmlns:xlink="http://www.w3.org/1999/xlink">
	<desc>
			Created with Pixso.
	</desc>
	<defs/>
	<path id="Oval 4" d="M20 40C31.04 40 40 31.04 40 20C40 8.95 31.04 0 20 0C8.95 0 0 8.95 0 20C0 31.04 8.95 40 20 40Z" fill="#F5F6F7" fill-opacity="1.000000" fill-rule="nonzero"/>
	<path id="Oval 4" d="M40 20C40 8.95 31.04 0 20 0C8.95 0 0 8.95 0 20C0 31.04 8.95 40 20 40C31.04 40 40 31.04 40 20Z" stroke="#979797" stroke-opacity="0" stroke-width="0.000000"/>
	<path id="Shape" d="M11 14L11 15.8L29 15.8L29 14L11 14ZM11 19.3999L11 21.2L29 21.2L29 19.3999L11 19.3999ZM11 26.6001L11 24.8L29 24.8L29 26.6001L11 26.6001Z" clip-rule="evenodd" fill="#000000" fill-opacity="1.000000" fill-rule="evenodd"/>
</svg>
