<svg width="139.000000" height="26.000000" viewBox="0 0 139 26" fill="none" xmlns="http://www.w3.org/2000/svg" xmlns:xlink="http://www.w3.org/1999/xlink">
	<desc>
			Created with Pixso.
	</desc>
	<defs/>
	<path id="webovio" d="M6.14441 25.1047L-0.508453 7.64795L5.06403 7.64795L8.53262 17.3145L11.7169 7.64795L15.9531 7.64795L19.308 17.3713L22.7482 7.64795L28.2354 7.64795L21.6678 25.1047L17.0904 25.1047L13.8492 15.7224L10.7218 25.1047L6.14441 25.1047ZM38.499 25.531C33.1255 25.531 29.4294 22.2615 29.4294 16.4048C29.4294 11.1165 33.2108 7.30688 38.3568 7.30688C43.3891 7.30688 46.943 10.6333 46.943 16.8596L46.9442 17.011C46.9455 17.0991 46.9478 17.1794 46.95 17.2559C46.9529 17.3591 46.9556 17.4556 46.9556 17.5566C46.9556 17.6653 46.9525 17.7788 46.943 17.9116L34.6608 17.9116C35.1157 19.9871 36.7646 20.9822 38.7549 20.9822C40.3901 20.9822 41.4945 19.8953 42.3779 18.7703L42.5362 18.5654C42.5362 18.5654 45.1143 20.052 46.3239 20.7788L46.6587 20.9822C45.1234 23.7114 42.1666 25.531 38.499 25.531ZM38.2999 11.7419C39.949 11.7419 40.8588 12.5381 41.4843 14.2156L34.8598 14.2156C35.5137 12.595 36.5088 11.7419 38.2999 11.7419ZM49.7861 25.1047L49.7861 3.32642L55.0458 3.32642L55.0458 9.29688C55.0458 9.29688 57.3772 7.30688 60.4193 7.30688C65.5654 7.30688 68.6075 11.6567 68.6075 16.4048C68.6075 21.2664 65.5085 25.531 60.5899 25.531C58.287 25.531 56.5811 24.8772 54.9606 23.2852L54.9606 25.1047L49.7861 25.1047ZM59.2252 12.197C61.6135 12.197 63.3477 14.0735 63.3477 16.291C63.3477 18.7644 62.0399 20.8401 59.4527 20.8401C56.6949 20.8401 54.9037 19.1057 54.9037 16.4048C54.9037 13.8743 56.7517 12.197 59.2252 12.197ZM70.5977 16.4617C70.5977 11.2302 74.777 7.30688 80.1505 7.30688C85.4387 7.30688 89.5612 11.1165 89.5612 16.3762C89.5612 21.6929 85.723 25.7017 80.0367 25.7017C74.6917 25.7017 70.5977 21.3232 70.5977 16.4617ZM80.1221 12.2822C82.5956 12.2822 84.3015 14.0449 84.3015 16.291C84.3015 19.0205 82.7093 20.6978 80.0936 20.6978C77.677 20.6978 75.8859 18.8782 75.8859 16.5469C75.8859 14.1587 77.5633 12.2822 80.1221 12.2822ZM98.119 25.1047L90.8121 7.64795L96.7258 7.64795L100.536 17.8547L104.118 7.64795L109.69 7.64795L102.839 25.1047L98.119 25.1047ZM117.082 25.1047L111.794 25.1047L111.794 7.64795L117.082 7.64795L117.082 25.1047ZM111.283 3.21265C111.283 1.44995 112.704 0 114.467 0C116.229 0 117.68 1.39307 117.68 3.15576C117.68 4.94702 116.229 6.39697 114.41 6.39697C112.676 6.39697 111.283 5.00391 111.283 3.21265ZM119.926 16.4617C119.926 11.2302 124.105 7.30688 129.478 7.30688C134.767 7.30688 138.889 11.1165 138.889 16.3762C138.889 21.6929 135.051 25.7017 129.365 25.7017C124.02 25.7017 119.926 21.3232 119.926 16.4617ZM129.45 12.2822C131.923 12.2822 133.629 14.0449 133.629 16.291C133.629 19.0205 132.037 20.6978 129.422 20.6978C127.005 20.6978 125.214 18.8782 125.214 16.5469C125.214 14.1587 126.891 12.2822 129.45 12.2822Z" clip-rule="evenodd" fill="#FFFFFF" fill-opacity="1.000000" fill-rule="evenodd"/>
</svg>
